<?xml version="1.0" encoding="UTF-8"?>
<svg width="21px" height="21px" viewBox="0 0 21 21" version="1.1" xmlns="http://www.w3.org/2000/svg" xmlns:xlink="http://www.w3.org/1999/xlink">
    <!-- Generator: Sketch 55.2 (78181) - https://sketchapp.com -->
    <title>profile</title>
    <desc>Created with Sketch.</desc>
    <g id="Symbols" stroke="none" stroke-width="1" fill="none" fill-rule="evenodd">
        <g id="mobile_header" transform="translate(-282.000000, -24.000000)" fill="#2B2B2B" fill-rule="nonzero">
            <g id="login/reg" transform="translate(278.000000, 13.000000)">
                <g id="profile" transform="translate(4.000000, 11.000000)">
                    <path d="M10.5,18.9 C15.1391919,18.9 18.9,15.1391919 18.9,10.5 C18.9,5.8608081 15.1391919,2.1 10.5,2.1 C5.8608081,2.1 2.1,5.8608081 2.1,10.5 C2.1,15.1391919 5.8608081,18.9 10.5,18.9 Z M10.5,21 C4.70101013,21 0,16.2989899 0,10.5 C0,4.70101013 4.70101013,0 10.5,0 C16.2989899,0 21,4.70101013 21,10.5 C21,16.2989899 16.2989899,21 10.5,21 Z" id="Oval-2"></path>
                    <path d="M10.5,18.9 C12.9131162,18.9 14.7,17.4853837 14.7,16.0125 C14.7,14.5396163 12.9131162,13.125 10.5,13.125 C8.08688376,13.125 6.3,14.5396163 6.3,16.0125 C6.3,17.4853837 8.08688376,18.9 10.5,18.9 Z M10.5,21 C7.02060608,21 4.2,18.7670202 4.2,16.0125 C4.2,13.2579798 7.02060608,11.025 10.5,11.025 C13.9793939,11.025 16.8,13.2579798 16.8,16.0125 C16.8,18.7670202 13.9793939,21 10.5,21 Z" id="Oval-3"></path>
                    <path d="M10.5,11.025 C11.659798,11.025 12.6,10.084798 12.6,8.925 C12.6,7.76520203 11.659798,6.825 10.5,6.825 C9.34020203,6.825 8.4,7.76520203 8.4,8.925 C8.4,10.084798 9.34020203,11.025 10.5,11.025 Z M10.5,13.125 C8.18040405,13.125 6.3,11.2445959 6.3,8.925 C6.3,6.60540405 8.18040405,4.725 10.5,4.725 C12.8195959,4.725 14.7,6.60540405 14.7,8.925 C14.7,11.2445959 12.8195959,13.125 10.5,13.125 Z" id="Oval-4"></path>
                </g>
            </g>
        </g>
    </g>
</svg>