<?xml version="1.0" encoding="UTF-8"?>
<svg width="49px" height="41px" viewBox="0 0 49 41" version="1.1" xmlns="http://www.w3.org/2000/svg" xmlns:xlink="http://www.w3.org/1999/xlink">
    <!-- Generator: Sketch 55.2 (78181) - https://sketchapp.com -->
    <title>camera</title>
    <desc>Created with Sketch.</desc>
    <defs>
        <path d="M35.8010002,10.2083333 L42.875,10.2083333 C46.2577441,10.2083333 49,12.9505892 49,16.3333333 L49,38.7916667 C49,42.1744108 46.2577441,44.9166667 42.875,44.9166667 L6.125,44.9166667 C2.74225591,44.9166667 0,42.1744108 0,38.7916667 L0,16.3333333 C0,12.9505892 2.74225591,10.2083333 6.125,10.2083333 L13.1989998,10.2083333 L16.6762306,4.9924871 C17.0548899,4.42449815 17.6923622,4.08333333 18.375,4.08333333 L30.625,4.08333333 C31.3076378,4.08333333 31.9451101,4.42449815 32.3237694,4.9924871 L35.8010002,10.2083333 Z M19.4676668,8.16666667 L15.990436,13.3825129 C15.6117767,13.9505018 14.9743044,14.2916667 14.2916667,14.2916667 L6.125,14.2916667 C4.99741864,14.2916667 4.08333333,15.205752 4.08333333,16.3333333 L4.08333333,38.7916667 C4.08333333,39.919248 4.99741864,40.8333333 6.125,40.8333333 L42.875,40.8333333 C44.0025814,40.8333333 44.9166667,39.919248 44.9166667,38.7916667 L44.9166667,16.3333333 C44.9166667,15.205752 44.0025814,14.2916667 42.875,14.2916667 L34.7083333,14.2916667 C34.0256956,14.2916667 33.3882233,13.9505018 33.009564,13.3825129 L29.5323332,8.16666667 L19.4676668,8.16666667 Z M24.5,36.75 C18.8620932,36.75 14.2916667,32.1795735 14.2916667,26.5416667 C14.2916667,20.9037598 18.8620932,16.3333333 24.5,16.3333333 C30.1379068,16.3333333 34.7083333,20.9037598 34.7083333,26.5416667 C34.7083333,32.1795735 30.1379068,36.75 24.5,36.75 Z M24.5,32.6666667 C27.8827441,32.6666667 30.625,29.9244108 30.625,26.5416667 C30.625,23.1589226 27.8827441,20.4166667 24.5,20.4166667 C21.1172559,20.4166667 18.375,23.1589226 18.375,26.5416667 C18.375,29.9244108 21.1172559,32.6666667 24.5,32.6666667 Z" id="path-1"></path>
    </defs>
    <g id="Page-1" stroke="none" stroke-width="1" fill="none" fill-rule="evenodd">
        <g id="02a.-scan" transform="translate(-575.000000, -312.000000)">
            <g id="how-to" transform="translate(256.000000, 308.000000)">
                <g id="camera" transform="translate(319.000000, 0.000000)">
                    <mask id="mask-2" fill="white">
                        <use xlink:href="#path-1"></use>
                    </mask>
                    <use id="Combined-Shape" fill="#000000" fill-rule="nonzero" xlink:href="#path-1"></use>
                    <g id="COLOR/-black" mask="url(#mask-2)" fill="#000000" fill-rule="evenodd">
                        <rect id="Rectangle" x="0" y="0" width="49" height="49"></rect>
                    </g>
                </g>
            </g>
        </g>
    </g>
</svg>