<?xml version="1.0" encoding="UTF-8"?>
<svg width="156px" height="156px" viewBox="0 0 156 156" version="1.1" xmlns="http://www.w3.org/2000/svg" xmlns:xlink="http://www.w3.org/1999/xlink">
    <!-- Generator: Sketch 55.2 (78181) - https://sketchapp.com -->
    <title>login/reg</title>
    <desc>Created with Sketch.</desc>
    <g id="Page-1" stroke="none" stroke-width="1" fill="none" fill-rule="evenodd">
        <g id="08.-my-profile-(mobile)" transform="translate(-82.000000, -161.000000)" fill-rule="nonzero">
            <g id="login/reg" transform="translate(82.000000, 161.000000)">
                <circle id="Oval" fill="#FFFFFF" cx="78" cy="78" r="78"></circle>
                <g id="profile" transform="translate(13.000000, 13.000000)" fill="#2B2B2B">
                    <path d="M65.5,117.9 C94.4397209,117.9 117.9,94.4397209 117.9,65.5 C117.9,36.5602791 94.4397209,13.1 65.5,13.1 C36.5602791,13.1 13.1,36.5602791 13.1,65.5 C13.1,94.4397209 36.5602791,117.9 65.5,117.9 Z M65.5,131 C29.3253489,131 0,101.674651 0,65.5 C0,29.3253489 29.3253489,0 65.5,0 C101.674651,0 131,29.3253489 131,65.5 C131,101.674651 101.674651,131 65.5,131 Z" id="Oval-2"></path>
                    <path d="M65.5,117.9 C80.5532489,117.9 91.7,109.075489 91.7,99.8875 C91.7,90.6995113 80.5532489,81.875 65.5,81.875 C50.4467511,81.875 39.3,90.6995113 39.3,99.8875 C39.3,109.075489 50.4467511,117.9 65.5,117.9 Z M65.5,131 C43.7952093,131 26.2,117.070459 26.2,99.8875 C26.2,82.7045407 43.7952093,68.775 65.5,68.775 C87.2047907,68.775 104.8,82.7045407 104.8,99.8875 C104.8,117.070459 87.2047907,131 65.5,131 Z" id="Oval-3"></path>
                    <path d="M65.5,68.775 C72.7349302,68.775 78.6,62.9099302 78.6,55.675 C78.6,48.4400698 72.7349302,42.575 65.5,42.575 C58.2650698,42.575 52.4,48.4400698 52.4,55.675 C52.4,62.9099302 58.2650698,68.775 65.5,68.775 Z M65.5,81.875 C51.0301396,81.875 39.3,70.1448604 39.3,55.675 C39.3,41.2051396 51.0301396,29.475 65.5,29.475 C79.9698604,29.475 91.7,41.2051396 91.7,55.675 C91.7,70.1448604 79.9698604,81.875 65.5,81.875 Z" id="Oval-4"></path>
                </g>
            </g>
        </g>
    </g>
</svg>